<svg width="22" height="22" viewBox="0 0 22 22" fill="none" xmlns="http://www.w3.org/2000/svg">
<circle cx="11" cy="11" r="11" fill="white"/>
<path d="M11 0C4.92545 0 0 4.92545 0 11C0 17.0746 4.92545 22 11 22C17.0746 22 22 17.0746 22 11C22 4.92545 17.0746 0 11 0ZM16.3183 14.7076C16.392 14.7812 16.4312 14.8795 16.4312 14.9826C16.4312 15.0857 16.392 15.1888 16.3183 15.2576L15.2576 16.3232C15.179 16.4018 15.0808 16.4362 14.9826 16.4362C14.8844 16.4362 14.7812 16.3969 14.7076 16.3232L11 12.6107L7.29732 16.3281C7.22366 16.4067 7.12054 16.4411 7.02232 16.4411C6.92411 16.4411 6.82098 16.4018 6.74732 16.3281L5.68661 15.2625C5.61295 15.1888 5.57366 15.0906 5.57366 14.9875C5.57366 14.8844 5.61295 14.7812 5.68661 14.7125L9.40402 10.9804L5.67679 7.29732C5.52455 7.14509 5.52455 6.89464 5.67679 6.74241L6.7375 5.67679C6.81116 5.60313 6.90937 5.56384 7.0125 5.56384C7.11562 5.56384 7.21384 5.60313 7.2875 5.67679L11.0049 9.34509L14.7223 5.67679C14.796 5.60313 14.8942 5.56384 14.9973 5.56384C15.1004 5.56384 15.1987 5.60313 15.2723 5.67679L16.333 6.74241C16.4853 6.89464 16.4853 7.14509 16.333 7.29732L12.6058 10.9804L16.3183 14.7076Z" fill="black"/>
</svg>
