<svg width="18" height="18" viewBox="0 0 18 18" fill="none" xmlns="http://www.w3.org/2000/svg">
<path d="M9.75 17.66L15.934 10.562C18.611 7.67801 18.493 4.05601 16.688 1.85701C15.79 0.762013 14.482 0.0410136 12.968 0.00201364C11.675 -0.0319864 10.316 0.432013 9.005 1.44401C7.69 0.432013 6.327 -0.0319864 5.032 0.00201364C3.517 0.0420136 2.207 0.762013 1.308 1.85701C-0.498004 4.05801 -0.607004 7.68001 2.08 10.563L8.263 17.66C8.453 17.876 8.723 18 9.006 18C9.14696 17.9998 9.28623 17.9693 9.41441 17.9107C9.54259 17.852 9.65669 17.7666 9.749 17.66H9.75Z" fill="black"/>
</svg>
